<svg id="Layer_1" enable-background="new 0 0 512 512" height="512" viewBox="0 0 512 512" width="512" xmlns="http://www.w3.org/2000/svg"><g><path d="m388.667 256 113.333 40-90.592-85.464z" fill="#fff2a0"/><g><path d="m501.998 306.001c-1.109 0-2.232-.185-3.326-.571l-106-37.412c-5.208-1.838-7.939-7.55-6.102-12.758s7.55-7.942 12.758-6.102l61.429 21.68-51.619-48.697c-4.018-3.79-4.201-10.119-.412-14.136 3.791-4.017 10.118-4.202 14.137-.412l86 81.132c3.437 3.243 4.136 8.448 1.675 12.482-1.858 3.045-5.131 4.794-8.54 4.794z" fill="#ff5d7d"/></g><circle cx="210" cy="356" fill="#ffbdbc" r="40"/><g><path d="m210 406c-27.57 0-50-22.43-50-50 0-5.523 4.478-10 10-10s10 4.477 10 10c0 16.542 13.458 30 30 30s30-13.458 30-30c0-5.276-1.386-10.46-4.008-14.993-2.766-4.781-1.132-10.898 3.649-13.664 4.782-2.766 10.898-1.13 13.663 3.649 4.38 7.572 6.695 16.22 6.695 25.007.001 27.572-22.429 50.001-49.999 50.001z" fill="#ff5d7d"/></g><path d="m330 126c-13.603 0-26.413 3.395-37.628 9.384-25.255-47.241-75.06-79.384-132.372-79.384-82.843 0-150 67.158-150 150 0 58.836 33.875 109.76 83.185 134.334-2.05 4.811-3.185 10.106-3.185 15.666 0 22.091 17.909 40 40 40s40-17.909 40-40c0-.109-.001-.219-.002-.328 53.069-3.492 98.599-34.584 122.374-79.056 11.215 5.989 24.025 9.384 37.628 9.384 44.183 0 80-35.817 80-80s-35.817-80-80-80z" fill="#ffbdbc"/><g><path d="m130 406c-27.57 0-50-22.43-50-50 0-6.79 1.341-13.38 3.984-19.586 2.165-5.081 8.038-7.445 13.12-5.28 5.081 2.165 7.444 8.039 5.28 13.12-1.582 3.713-2.384 7.665-2.384 11.746 0 16.542 13.458 30 30 30s30-13.458 30-30l-.002-.238c-.049-5.523 4.388-10.04 9.91-10.089 5.488-.057 10.04 4.387 10.09 9.91l.002.417c0 27.571-22.43 50-50 50z" fill="#ff5d7d"/></g><g><path d="m230.009 348.701c-3.588 0-7.057-1.936-8.85-5.329-2.581-4.883-.715-10.933 4.168-13.514 24.843-13.132 44.977-33.173 58.225-57.957 2.604-4.868 8.657-6.708 13.529-4.107 10.054 5.369 21.437 8.206 32.919 8.206 38.599 0 70-31.402 70-70s-31.401-70-70-70c-11.481 0-22.864 2.837-32.919 8.206-4.875 2.601-10.93.76-13.531-4.111-2.602-4.872-.761-10.93 4.111-13.531 12.943-6.911 27.583-10.564 42.339-10.564 49.626 0 90 40.374 90 90s-40.374 90-90 90c-11.49 0-22.91-2.215-33.513-6.458-15.019 24.538-36.23 44.474-61.814 57.998-1.489.788-3.089 1.161-4.664 1.161z" fill="#ff5d7d"/></g><g><path d="m116.004 359.446c-.971 0-1.957-.142-2.934-.441-32.052-9.82-60.848-30.064-81.081-57.004-20.927-27.865-31.989-61.061-31.989-96.001 0-5.523 4.478-10 10-10s10 4.477 10 10c0 61.95 39.757 115.753 98.93 133.882 5.28 1.618 8.249 7.21 6.632 12.491-1.32 4.304-5.28 7.073-9.558 7.073z" fill="#ff5d7d"/></g><g><path d="m310 216c-5.522 0-10-4.477-10-10 0-77.196-62.804-140-140-140s-140 62.804-140 140c0 5.523-4.478 10-10 10s-10-4.477-10-10c0-88.224 71.775-160 160-160s160 71.776 160 160c0 5.523-4.478 10-10 10z" fill="#ff5d7d"/></g><g><path d="m160 466h-50c-5.522 0-10-4.477-10-10s4.478-10 10-10h50c5.522 0 10 4.477 10 10s-4.478 10-10 10z" fill="#ff5d7d"/></g><g><path d="m130 466c-5.522 0-10-4.477-10-10v-60c0-5.523 4.478-10 10-10s10 4.477 10 10v60c0 5.523-4.478 10-10 10z" fill="#ff5d7d"/></g><g><path d="m240 466h-50c-5.522 0-10-4.477-10-10s4.478-10 10-10h50c5.522 0 10 4.477 10 10s-4.478 10-10 10z" fill="#ff5d7d"/></g><g><path d="m210 466c-5.522 0-10-4.477-10-10v-60c0-5.523 4.478-10 10-10s10 4.477 10 10v60c0 5.523-4.478 10-10 10z" fill="#ff5d7d"/></g><circle cx="350" cy="186" fill="#ff5d7d" r="10"/></g></svg>