<?xml version="1.0" ?><!DOCTYPE svg  PUBLIC '-//W3C//DTD SVG 1.1//EN'  'http://www.w3.org/Graphics/SVG/1.1/DTD/svg11.dtd'><svg fill="black" enable-background="new 0 0 91 91" height="91px" id="Layer_1" version="1.1" viewBox="0 0 91 91" width="91px" xml:space="preserve" xmlns="http://www.w3.org/2000/svg" xmlns:xlink="http://www.w3.org/1999/xlink"><g><path d="M38.981,35.496c-0.378,0.804,0.255,1.932,1.239,1.612c2.533-0.819,4.878-2.798,7.04-0.303   c1.652,1.909,4.533-0.531,3.396-2.623C48.131,29.543,40.945,31.319,38.981,35.496z"/><path d="M57.994,25.632C50.363,20.9,38.764,20.383,32.725,28c-0.424,0.534-0.053,1.682,0.776,1.335   c7.533-3.166,14.973-4.528,22.241,0.149C58.158,31.037,60.434,27.146,57.994,25.632z"/><path d="M62.68,16.517c-5.807-3.332-12.445-4.956-19.141-4.652c-3.199,0.143-6.288,0.731-9.286,1.861   c-1.533,0.579-2.997,1.266-4.39,2.133c-1.622,1.01-2.68,2.358-4.185,3.491c-0.431,0.325-0.048,1.05,0.438,0.748   c2.384-1.481,5.911-2.202,8.626-2.912c2.848-0.745,5.854-1.161,8.797-1.237c5.975-0.154,11.764,1.356,16.891,4.418   C62.898,21.842,65.172,17.944,62.68,16.517z"/><path d="M69.201,60.682c-0.74,0-1.518,0.319-2.041,0.844c-0.498,0.499-0.877,1.32-0.844,2.038c0.07,1.563,1.268,2.885,2.885,2.885   c0.738,0,1.516-0.322,2.037-0.845c0.5-0.501,0.877-1.32,0.846-2.04C72.014,62.001,70.816,60.682,69.201,60.682z"/><path d="M37.256,60.682c-0.74,0-1.516,0.319-2.04,0.844c-0.5,0.499-0.877,1.32-0.844,2.038c0.07,1.563,1.268,2.885,2.884,2.885   c0.738,0,1.515-0.322,2.039-0.845c0.499-0.501,0.877-1.32,0.844-2.04C40.069,62.001,38.872,60.682,37.256,60.682z"/><path d="M36.807,51.453c-1.44-0.131-2.367,0.677-2.768,1.746c-4.195,0.337-7.774,5.493-8.144,9.308   c-0.612,6.346,4.566,11.817,10.852,11.826c6.2,0.01,11.733-4.061,11.965-10.545C48.959,56.87,43.32,52.045,36.807,51.453z    M36.305,69.44c-3.848-0.143-6.91-3.674-6.09-7.59c0.549-2.619,2.345-3.964,4.219-5.322c0.494,0.687,1.28,1.156,2.374,1.136   c3.509-0.062,7.263,2.213,7.024,6.124C43.587,67.788,39.947,69.578,36.305,69.44z"/><path d="M68.75,51.453c-1.439-0.131-2.365,0.677-2.766,1.746c-4.195,0.337-7.775,5.493-8.143,9.308   c-0.615,6.346,4.564,11.817,10.85,11.826c6.199,0.01,11.732-4.061,11.965-10.545C80.902,56.87,75.266,52.045,68.75,51.453z    M68.248,69.44c-3.846-0.143-6.908-3.674-6.09-7.59c0.549-2.619,2.346-3.964,4.221-5.322c0.492,0.687,1.279,1.156,2.371,1.136   c3.51-0.062,7.264,2.213,7.027,6.124C75.531,67.788,71.891,69.578,68.248,69.44z"/><path d="M90.119,47.534c-0.08-0.579-1.361-1.591-1.553-1.69c-6.607-3.414-13.113-7.038-19.613-10.648   c-1.547-0.857-2.773-0.962-4.549-0.982c-2.832-0.03-6.885-0.69-9.531,0.458c-1.113,0.479-0.68,2.131,0.316,2.431   c2.74,0.828,6.094,0.711,8.943,1.14c0.529,0.08,3.043,0.93,3.311,1.083c3.881,2.189,7.764,4.373,11.668,6.521   c-20.109-0.092-40.214-0.396-60.32-0.968c-1.544-1.493-6.951-5.457-7.948-6.271c7.001-0.507,14.025-1.141,20.949-2.118   c1.324-0.186,0.909-2.169-0.303-2.232c-8.901-0.469-17.929-0.34-26.841-0.129c-1.403,0.033-2.866,1.468-2.408,2.959   c-0.891,5.198-1.126,10.61-1.398,15.871c-0.129,2.524-0.544,5.228-0.325,7.741c0.169,1.935,1.05,2.875,2.372,4.204   c4.572,4.605,13.583,14.648,13.784,14.793c0.565,0.479,1.197,0.611,1.788,0.502c11.029-0.028,59.526,0.395,64.618-0.048   c8.504-0.736,7.293-10.247,7.322-16.546C90.426,58.351,90.846,52.753,90.119,47.534z M8.248,64.106   c-1.823-1.821-3.267-2.813-3.504-5.519C4.55,56.379,4.891,44.065,4.647,40.204c1.417,1.221,11.595,9.404,11.709,9.508   c-0.055,0.965-0.086,1.935-0.131,2.903c-0.153,3.455-0.486,16.127-0.503,19.003C13.25,69.095,10.744,66.601,8.248,64.106z    M85.801,71.476c-0.137,2.713-0.777,3.972-3.494,4.138c-2.184,0.134-4.43-0.015-6.619-0.02c-18.357-0.07-36.714-0.135-55.071-0.266   c-0.018-4.4-0.032-8.799-0.121-13.197c-0.071-3.463-0.354-6.928-0.576-10.385c-0.028-0.44-0.044-0.907-0.063-1.38   c21.966,0.234,43.933,0.102,65.897,0.038c0.025,0.881,0.049,1.762,0.066,2.645c0.064,2.977,0.105,5.957,0.117,8.939   C85.951,65.147,85.961,68.315,85.801,71.476z"/></g></svg>