<?xml version="1.0" encoding="utf-8"?>
<!-- Uploaded to SVGRepo https://www.svgrepo.com -->
<svg fill="current" version="1.1" id="Layer_1" xmlns="http://www.w3.org/2000/svg" xmlns:xlink="http://www.w3.org/1999/xlink" x="0px" y="0px"
	 width="228px" height="260px" viewBox="0 0 228 260" enable-background="new 0 0 228 260" xml:space="preserve">
<path d="M225.432,167.15L205.882,118v-15c-0.28-28.01-11.82-52.91-30.24-71.23C157.232,13.45,131.852,2,103.882,2
	c-0.96,0-1.92,0.01-2.88,0.04v64.6c16.79,6.37,28.75,22.62,28.75,41.61c0,24.54-19.96,44.5-44.5,44.5s-44.5-19.96-44.5-44.5
	C40.752,89.45,52.48,73.5,69,67V8C29.91,22.33,2,59.79,2,104c0,29.31,12.282,56.2,31.942,74.85L33.882,258h112v-20h20
	c22.08,0,40-17.83,40-40v-20h12C223.542,178,227.532,172.41,225.432,167.15z M177.832,129c-6.07,0-10.99-4.94-10.99-11.04
	c0-6.1,4.92-11.03,10.99-11.03s10.99,4.93,10.99,11.03C188.822,124.06,183.902,129,177.832,129z M60.752,108.25
	c0,13.51,10.99,24.5,24.5,24.5s24.5-10.99,24.5-24.5s-10.99-24.5-24.5-24.5S60.752,94.74,60.752,108.25z"/>
</svg>