<svg fill="white" height="496pt" viewBox="0 -104 496 496" width="496pt" xmlns="http://www.w3.org/2000/svg"><path d="m456 0h-416c-22.054688 0-40 17.945312-40 40v208c0 22.054688 17.945312 40 40 40h416c22.054688 0 40-17.945312 40-40v-208c0-22.054688-17.945312-40-40-40zm-40 16v256h-336v-256zm-400 232v-208c0-13.230469 10.769531-24 24-24h24v256h-24c-13.230469 0-24-10.769531-24-24zm464 0c0 13.230469-10.769531 24-24 24h-24v-256h24c13.230469 0 24 10.769531 24 24zm0 0"/><path d="m448 120h16v48h-16zm0 0"/><path d="m32 80h16v16h-16zm0 0"/><path d="m32 192h16v16h-16zm0 0"/><path d="m32 112h16v64h-16zm0 0"/><path d="m96 96h16v96h-16zm0 0"/><path d="m128 80h16v128h-16zm0 0"/><path d="m160 32h16v224h-16zm0 0"/><path d="m192 56h16v176h-16zm0 0"/><path d="m224 32h16v224h-16zm0 0"/><path d="m256 72h16v144h-16zm0 0"/><path d="m288 56h16v176h-16zm0 0"/><path d="m320 32h16v224h-16zm0 0"/><path d="m352 80h16v128h-16zm0 0"/><path d="m384 96h16v96h-16zm0 0"/></svg>