<?xml version="1.0" encoding="iso-8859-1"?>
<!-- Generator: Adobe Illustrator 19.0.0, SVG Export Plug-In . SVG Version: 6.00 Build 0)  -->
<svg version="1.1" id="Layer_1" xmlns="http://www.w3.org/2000/svg" xmlns:xlink="http://www.w3.org/1999/xlink" x="0px" y="0px"
	 viewBox="0 0 496.8 496.8" style="enable-background:new 0 0 496.8 496.8;" xml:space="preserve">
<path style="fill:#8E8E8E;" d="M56,451.6c-27.2,0-50.4,12-56,28.8h111.2C106.4,464.4,84,451.6,56,451.6z"/>
<path style="fill:#707070;" d="M0,480.4h111.2c-5.6-16-28-28.8-56-28.8"/>
<path style="fill:#FFA515;" d="M90.4,434.8c0,14.4-11.2,25.6-25.6,25.6H47.2c-14.4,0-25.6-11.2-25.6-25.6V42
	c0.8-13.6,12-25.6,25.6-25.6h17.6c14.4,0,25.6,11.2,25.6,25.6V434.8z"/>
<path style="fill:#ED900A;" d="M47.2,16.4h17.6c14.4,0,25.6,11.2,25.6,25.6v392.8c0,14.4-11.2,25.6-25.6,25.6H47.2"/>
<path style="fill:#EA7711;" d="M64.8,16.4c14.4,0,25.6,11.2,25.6,25.6v392.8c0,14.4-11.2,25.6-25.6,25.6"/>
<ellipse transform="matrix(-0.6347 -0.7727 0.7727 -0.6347 35.7019 73.7921)" style="fill:#FFD217;" cx="35.292" cy="28.458" rx="4" ry="12.799"/>
<path style="fill:#FFB717;" d="M30.4,90.8C30.4,76.4,41.6,62,56,62s25.6,15.2,25.6,28.8"/>
<circle style="fill:#00233F;" cx="56" cy="90.8" r="25.6"/>
<path style="fill:#D16311;" d="M81.6,90.8c0,14.4-11.2,28.8-25.6,28.8s-25.6-15.2-25.6-28.8c0-14.4,11.2-21.6,25.6-21.6
	S81.6,76.4,81.6,90.8z"/>
<path style="fill:#064570;" d="M81.6,90.8c0,14.4-11.2,25.6-25.6,25.6s-25.6-12-25.6-25.6c0-14.4,11.2-21.6,25.6-21.6
	S81.6,76.4,81.6,90.8z"/>
<g>
	<path style="fill:#00233F;" d="M56,65.2c14.4,0,25.6,11.2,25.6,25.6S70.4,116.4,56,116.4"/>
	<path style="fill:#00233F;" d="M64.8,81.2c4.8,4.8,4.8,16,0,20.8s-12.8,4.8-18.4,0c-4.8-4.8-4.8-16,0-20.8S60,76.4,64.8,81.2z"/>
</g>
<circle style="fill:#B2B2B2;" cx="56" cy="90.8" r="12.8"/>
<path style="fill:#8E8E8E;" d="M47.2,81.2c4.8-4.8,12.8-4.8,18.4,0s4.8,12.8,0,18.4"/>
<path style="fill:#A09F9F;" d="M63.2,90.8c0,4-3.2,8-7.2,8s-7.2-4.8-7.2-8c0-4,3.2-7.2,7.2-7.2C60,83.6,63.2,86.8,63.2,90.8z"/>
<circle style="fill:#8E8E8E;" cx="56" cy="90.8" r="7.2"/>
<path style="fill:#707070;" d="M56,83.6c4,0,7.2,3.2,7.2,7.2S60,98,56,98"/>
<path style="fill:#FFB717;" d="M38.4,146.8c0-9.6,8-20,17.6-20s17.6,10.4,17.6,20"/>
<circle style="fill:#00233F;" cx="56" cy="146.8" r="17.6"/>
<path style="fill:#D16311;" d="M73.6,146.8c0,9.6-8,20-17.6,20s-17.6-10.4-17.6-20s8-15.2,17.6-15.2S73.6,136.4,73.6,146.8z"/>
<path style="fill:#064570;" d="M73.6,146.8c0,9.6-8,17.6-17.6,17.6s-17.6-8-17.6-17.6s8-15.2,17.6-15.2S73.6,136.4,73.6,146.8z"/>
<g>
	<path style="fill:#00233F;" d="M56,128.4c9.6,0,17.6,8,17.6,17.6s-8,17.6-17.6,17.6"/>
	<path style="fill:#00233F;" d="M62.4,140.4c3.2,3.2,3.2,11.2,0,14.4c-3.2,3.2-8.8,3.2-12.8,0c-3.2-3.2-3.2-11.2,0-14.4
		C53.6,136.4,59.2,136.4,62.4,140.4z"/>
</g>
<circle style="fill:#B2B2B2;" cx="56" cy="146.8" r="8.8"/>
<path style="fill:#8E8E8E;" d="M49.6,140.4c3.2-3.2,8.8-3.2,12.8,0c3.2,3.2,3.2,8.8,0,12.8"/>
<path style="fill:#A09F9F;" d="M60.8,146.8c0,2.4-2.4,5.6-4.8,5.6c-2.4,0-4.8-3.2-4.8-5.6c0-2.4,2.4-4.8,4.8-4.8
	C59.2,142,60.8,143.6,60.8,146.8z"/>
<circle style="fill:#8E8E8E;" cx="56" cy="146.8" r="4.8"/>
<path style="fill:#707070;" d="M56,142c2.4,0,4.8,2.4,4.8,4.8c0,2.4-2.4,4.8-4.8,4.8"/>
<path style="fill:#FFB717;" d="M38.4,322c0-9.6,8-20,17.6-20s17.6,10.4,17.6,20"/>
<circle style="fill:#00233F;" cx="56" cy="322" r="17.6"/>
<path style="fill:#D16311;" d="M73.6,322c0,9.6-8,20-17.6,20s-17.6-10.4-17.6-20s8-15.2,17.6-15.2S73.6,312.4,73.6,322z"/>
<path style="fill:#064570;" d="M73.6,322c0,9.6-8,17.6-17.6,17.6s-17.6-8-17.6-17.6s8-15.2,17.6-15.2S73.6,312.4,73.6,322z"/>
<g>
	<path style="fill:#00233F;" d="M56,304.4c9.6,0,17.6,8,17.6,17.6s-8,17.6-17.6,17.6"/>
	<path style="fill:#00233F;" d="M62.4,315.6c3.2,3.2,3.2,11.2,0,14.4c-3.2,3.2-8.8,3.2-12.8,0c-3.2-3.2-3.2-11.2,0-14.4
		C53.6,312.4,59.2,312.4,62.4,315.6z"/>
</g>
<circle style="fill:#B2B2B2;" cx="56" cy="322" r="8.8"/>
<path style="fill:#8E8E8E;" d="M49.6,315.6c3.2-3.2,8.8-3.2,12.8,0c3.2,3.2,3.2,8.8,0,12.8"/>
<path style="fill:#A09F9F;" d="M60.8,322c0,2.4-2.4,5.6-4.8,5.6c-2.4,0-4.8-3.2-4.8-5.6s2.4-4.8,4.8-4.8
	C59.2,317.2,60.8,319.6,60.8,322z"/>
<circle style="fill:#8E8E8E;" cx="56" cy="322" r="4.8"/>
<path style="fill:#707070;" d="M56,317.2c2.4,0,4.8,2.4,4.8,4.8s-2.4,4.8-4.8,4.8"/>
<path style="fill:#D16311;" d="M71.2,266.8c0,8-6.4,15.2-15.2,15.2l0,0c-8,0-15.2-6.4-15.2-15.2v-59.2c0-8,6.4-15.2,15.2-15.2l0,0
	c8,0,15.2,6.4,15.2,15.2V266.8z"/>
<path style="fill:#A84A0B;" d="M56,193.2L56,193.2c8,0,15.2,6.4,15.2,15.2v59.2c0,8-6.4,15.2-15.2,15.2l0,0"/>
<path style="fill:#FFB717;" d="M47.2,211.6c0-4.8,4-9.6,8.8-9.6s8.8,4.8,8.8,9.6"/>
<circle style="fill:#00233F;" cx="56" cy="211.6" r="8.8"/>
<path style="fill:#D16311;" d="M64.8,211.6c0,4.8-4,9.6-8.8,9.6s-8.8-4.8-8.8-9.6s4-7.2,8.8-7.2S64.8,206.8,64.8,211.6z"/>
<path style="fill:#064570;" d="M64.8,211.6c0,4.8-4,8.8-8.8,8.8s-8.8-4-8.8-8.8s4-7.2,8.8-7.2S64.8,206.8,64.8,211.6z"/>
<g>
	<path style="fill:#00233F;" d="M56,202.8c4.8,0,8.8,4,8.8,8.8s-4,8.8-8.8,8.8"/>
	<path style="fill:#00233F;" d="M59.2,208.4c1.6,1.6,1.6,5.6,0,7.2c-1.6,1.6-4,1.6-6.4,0c-1.6-1.6-1.6-5.6,0-7.2
		C54.4,206.8,57.6,206.8,59.2,208.4z"/>
</g>
<circle style="fill:#B2B2B2;" cx="56" cy="211.6" r="4"/>
<path style="fill:#8E8E8E;" d="M52.8,208.4c1.6-1.6,4-1.6,6.4,0c1.6,1.6,1.6,4,0,6.4"/>
<path style="fill:#A09F9F;" d="M58.4,211.6c0,1.6-0.8,2.4-2.4,2.4s-2.4-1.6-2.4-2.4c0-1.6,0.8-2.4,2.4-2.4
	C57.6,209.2,58.4,210,58.4,211.6z"/>
<circle style="fill:#8E8E8E;" cx="56" cy="211.6" r="2.4"/>
<path style="fill:#707070;" d="M56,209.2c1.6,0,2.4,0.8,2.4,2.4c0,1.6-0.8,2.4-2.4,2.4"/>
<path style="fill:#FFB717;" d="M47.2,237.2c0-4.8,4-9.6,8.8-9.6s8.8,4.8,8.8,9.6"/>
<circle style="fill:#00233F;" cx="56" cy="237.2" r="8.8"/>
<path style="fill:#D16311;" d="M64.8,237.2c0,4.8-4,9.6-8.8,9.6s-8.8-4.8-8.8-9.6s4-7.2,8.8-7.2S64.8,232.4,64.8,237.2z"/>
<path style="fill:#064570;" d="M64.8,237.2c0,4.8-4,8.8-8.8,8.8s-8.8-4-8.8-8.8s4-7.2,8.8-7.2S64.8,232.4,64.8,237.2z"/>
<g>
	<path style="fill:#00233F;" d="M56,228.4c4.8,0,8.8,4,8.8,8.8s-4,8.8-8.8,8.8"/>
	<path style="fill:#00233F;" d="M59.2,234c1.6,1.6,1.6,5.6,0,7.2c-1.6,1.6-4,1.6-6.4,0c-1.6-1.6-1.6-5.6,0-7.2
		C54.4,232.4,57.6,232.4,59.2,234z"/>
</g>
<circle style="fill:#B2B2B2;" cx="56" cy="237.2" r="4"/>
<path style="fill:#8E8E8E;" d="M52.8,234c1.6-1.6,4-1.6,6.4,0c1.6,1.6,1.6,4,0,6.4"/>
<path style="fill:#A09F9F;" d="M58.4,237.2c0,1.6-0.8,2.4-2.4,2.4s-2.4-1.6-2.4-2.4c0-1.6,0.8-2.4,2.4-2.4
	C57.6,234.8,58.4,235.6,58.4,237.2z"/>
<circle style="fill:#8E8E8E;" cx="56" cy="237.2" r="2.4"/>
<path style="fill:#707070;" d="M56,234.8c1.6,0,2.4,0.8,2.4,2.4c0,1.6-0.8,2.4-2.4,2.4"/>
<path style="fill:#FFB717;" d="M47.2,262.8c0-4.8,4-9.6,8.8-9.6s8.8,4.8,8.8,9.6"/>
<circle style="fill:#00233F;" cx="56" cy="262.8" r="8.8"/>
<path style="fill:#D16311;" d="M64.8,262.8c0,4.8-4,9.6-8.8,9.6s-8.8-4.8-8.8-9.6c0-4.8,4-7.2,8.8-7.2S64.8,258,64.8,262.8z"/>
<path style="fill:#064570;" d="M64.8,262.8c0,4.8-4,8.8-8.8,8.8s-8.8-4-8.8-8.8s4-7.2,8.8-7.2S64.8,258,64.8,262.8z"/>
<g>
	<path style="fill:#00233F;" d="M56,254c4.8,0,8.8,4,8.8,8.8s-4,8.8-8.8,8.8"/>
	<path style="fill:#00233F;" d="M59.2,259.6c1.6,1.6,1.6,5.6,0,7.2s-4,1.6-6.4,0c-1.6-1.6-1.6-5.6,0-7.2S57.6,258,59.2,259.6z"/>
</g>
<circle style="fill:#B2B2B2;" cx="56" cy="262.8" r="4"/>
<path style="fill:#8E8E8E;" d="M52.8,259.6c1.6-1.6,4-1.6,6.4,0c1.6,1.6,1.6,4,0,6.4"/>
<path style="fill:#A09F9F;" d="M58.4,262.8c0,1.6-0.8,2.4-2.4,2.4s-2.4-1.6-2.4-2.4c0-1.6,0.8-2.4,2.4-2.4
	C57.6,260.4,58.4,261.2,58.4,262.8z"/>
<circle style="fill:#8E8E8E;" cx="56" cy="262.8" r="2.4"/>
<path style="fill:#707070;" d="M56,260.4c1.6,0,2.4,0.8,2.4,2.4s-0.8,2.4-2.4,2.4"/>
<path style="fill:#FFB717;" d="M30.4,386c0-14.4,11.2-28.8,25.6-28.8s25.6,15.2,25.6,28.8"/>
<circle style="fill:#00233F;" cx="56" cy="386" r="25.6"/>
<path style="fill:#D16311;" d="M81.6,386c0,14.4-11.2,28.8-25.6,28.8S30.4,400.4,30.4,386s11.2-21.6,25.6-21.6S81.6,371.6,81.6,386z
	"/>
<path style="fill:#064570;" d="M81.6,386c0,14.4-11.2,25.6-25.6,25.6S30.4,400.4,30.4,386s11.2-21.6,25.6-21.6S81.6,371.6,81.6,386z
	"/>
<g>
	<path style="fill:#00233F;" d="M56,360.4c14.4,0,25.6,11.2,25.6,25.6S70.4,411.6,56,411.6"/>
	<path style="fill:#00233F;" d="M64.8,376.4c4.8,4.8,4.8,16,0,20.8s-12.8,4.8-18.4,0c-4.8-4.8-4.8-16,0-20.8
		C52,371.6,60,371.6,64.8,376.4z"/>
</g>
<circle style="fill:#B2B2B2;" cx="56" cy="386" r="12.8"/>
<path style="fill:#8E8E8E;" d="M47.2,376.4c4.8-4.8,12.8-4.8,18.4,0c4.8,4.8,4.8,12.8,0,18.4"/>
<path style="fill:#A09F9F;" d="M63.2,386c0,4-3.2,8-7.2,8s-7.2-4.8-7.2-8c0-4,3.2-7.2,7.2-7.2S63.2,382,63.2,386z"/>
<circle style="fill:#8E8E8E;" cx="56" cy="386" r="7.2"/>
<path style="fill:#707070;" d="M56,378.8c4,0,7.2,3.2,7.2,7.2s-3.2,7.2-7.2,7.2"/>
<path style="fill:#8E8E8E;" d="M441.6,451.6c-27.2,0-50.4,12-56,28.8h111.2C492,464.4,468.8,451.6,441.6,451.6z"/>
<path style="fill:#707070;" d="M385.6,480.4h111.2c-5.6-16-28-28.8-56-28.8"/>
<path style="fill:#FFA515;" d="M475.2,434.8c0,14.4-11.2,25.6-25.6,25.6h-16.8c-14.4,0-25.6-11.2-25.6-25.6V42
	c0-13.6,11.2-25.6,25.6-25.6h16.8c14.4,0,25.6,11.2,25.6,25.6V434.8z"/>
<path style="fill:#ED900A;" d="M432.8,16.4h16.8c14.4,0,25.6,11.2,25.6,25.6v392.8c0,14.4-11.2,25.6-25.6,25.6h-16.8"/>
<path style="fill:#EA7711;" d="M450.4,16.4c14.4,0,25.6,11.2,25.6,25.6v392.8c0,14.4-11.2,25.6-25.6,25.6"/>
<ellipse transform="matrix(-0.6347 -0.7727 0.7727 -0.6347 666.0513 371.4291)" style="fill:#FFD217;" cx="420.813" cy="28.294" rx="4" ry="12.799"/>
<path style="fill:#FFB717;" d="M416,90.8c0-14.4,11.2-28.8,25.6-28.8s25.6,15.2,25.6,28.8"/>
<circle style="fill:#00233F;" cx="441.6" cy="90.8" r="25.6"/>
<path style="fill:#D16311;" d="M467.2,90.8c0,14.4-11.2,28.8-25.6,28.8S416,105.2,416,90.8s11.2-21.6,25.6-21.6
	S467.2,76.4,467.2,90.8z"/>
<path style="fill:#064570;" d="M467.2,90.8c0,14.4-11.2,25.6-25.6,25.6S416,105.2,416,90.8s11.2-21.6,25.6-21.6
	S467.2,76.4,467.2,90.8z"/>
<g>
	<path style="fill:#00233F;" d="M441.6,65.2c14.4,0,25.6,11.2,25.6,25.6s-11.2,25.6-25.6,25.6"/>
	<path style="fill:#00233F;" d="M450.4,81.2c4.8,4.8,4.8,16,0,20.8s-12.8,4.8-18.4,0c-4.8-4.8-4.8-16,0-20.8S445.6,76.4,450.4,81.2z
		"/>
</g>
<circle style="fill:#B2B2B2;" cx="441.6" cy="90.8" r="12.8"/>
<path style="fill:#8E8E8E;" d="M432.8,81.2c4.8-4.8,12.8-4.8,18.4,0s4.8,12.8,0,18.4"/>
<path style="fill:#A09F9F;" d="M448.8,90.8c0,4-3.2,8-7.2,8s-7.2-4.8-7.2-8c0-4,3.2-7.2,7.2-7.2C445.6,83.6,448.8,86.8,448.8,90.8z"
	/>
<circle style="fill:#8E8E8E;" cx="441.6" cy="90.8" r="7.2"/>
<path style="fill:#707070;" d="M441.6,83.6c4,0,7.2,3.2,7.2,7.2s-3.2,7.2-7.2,7.2"/>
<path style="fill:#FFB717;" d="M424,146.8c0-9.6,8-20,17.6-20s17.6,10.4,17.6,20"/>
<circle style="fill:#00233F;" cx="441.6" cy="146.8" r="17.6"/>
<path style="fill:#D16311;" d="M459.2,146.8c0,9.6-8,20-17.6,20s-17.6-10.4-17.6-20s8-15.2,17.6-15.2S459.2,136.4,459.2,146.8z"/>
<path style="fill:#064570;" d="M459.2,146.8c0,9.6-8,17.6-17.6,17.6s-17.6-8-17.6-17.6s8-15.2,17.6-15.2S459.2,136.4,459.2,146.8z"
	/>
<g>
	<path style="fill:#00233F;" d="M441.6,128.4c9.6,0,17.6,8,17.6,17.6s-8,17.6-17.6,17.6"/>
	<path style="fill:#00233F;" d="M448,140.4c3.2,3.2,3.2,11.2,0,14.4s-8.8,3.2-12.8,0c-3.2-3.2-3.2-11.2,0-14.4
		C438.4,136.4,444,136.4,448,140.4z"/>
</g>
<circle style="fill:#B2B2B2;" cx="441.6" cy="146.8" r="8.8"/>
<path style="fill:#8E8E8E;" d="M435.2,140.4c3.2-3.2,8.8-3.2,12.8,0c3.2,3.2,3.2,8.8,0,12.8"/>
<path style="fill:#A09F9F;" d="M446.4,146.8c0,2.4-2.4,5.6-4.8,5.6s-4.8-3.2-4.8-5.6c0-2.4,2.4-4.8,4.8-4.8
	C444,142,446.4,143.6,446.4,146.8z"/>
<circle style="fill:#8E8E8E;" cx="441.6" cy="146.8" r="4.8"/>
<path style="fill:#707070;" d="M441.6,142c2.4,0,4.8,2.4,4.8,4.8c0,2.4-2.4,4.8-4.8,4.8"/>
<path style="fill:#FFB717;" d="M424,322c0-9.6,8-20,17.6-20s17.6,10.4,17.6,20"/>
<circle style="fill:#00233F;" cx="441.6" cy="322" r="17.6"/>
<path style="fill:#D16311;" d="M459.2,322c0,9.6-8,20-17.6,20S424,331.6,424,322s8-15.2,17.6-15.2S459.2,312.4,459.2,322z"/>
<path style="fill:#064570;" d="M459.2,322c0,9.6-8,17.6-17.6,17.6s-17.6-8-17.6-17.6s8-15.2,17.6-15.2S459.2,312.4,459.2,322z"/>
<g>
	<path style="fill:#00233F;" d="M441.6,304.4c9.6,0,17.6,8,17.6,17.6s-8,17.6-17.6,17.6"/>
	<path style="fill:#00233F;" d="M448,315.6c3.2,3.2,3.2,11.2,0,14.4c-3.2,3.2-8.8,3.2-12.8,0c-3.2-3.2-3.2-11.2,0-14.4
		C438.4,312.4,444,312.4,448,315.6z"/>
</g>
<circle style="fill:#B2B2B2;" cx="441.6" cy="322" r="8.8"/>
<path style="fill:#8E8E8E;" d="M435.2,315.6c3.2-3.2,8.8-3.2,12.8,0c3.2,3.2,3.2,8.8,0,12.8"/>
<path style="fill:#A09F9F;" d="M446.4,322c0,2.4-2.4,5.6-4.8,5.6s-4.8-3.2-4.8-5.6s2.4-4.8,4.8-4.8C444,317.2,446.4,319.6,446.4,322
	z"/>
<circle style="fill:#8E8E8E;" cx="441.6" cy="322" r="4.8"/>
<path style="fill:#707070;" d="M441.6,317.2c2.4,0,4.8,2.4,4.8,4.8s-2.4,4.8-4.8,4.8"/>
<path style="fill:#D16311;" d="M456,266.8c0,8-6.4,15.2-15.2,15.2l0,0c-8,0-15.2-6.4-15.2-15.2v-59.2c0-8,6.4-15.2,15.2-15.2l0,0
	c8,0,15.2,6.4,15.2,15.2V266.8z"/>
<path style="fill:#A84A0B;" d="M441.6,193.2L441.6,193.2c8,0,15.2,6.4,15.2,15.2v59.2c0,8-6.4,15.2-15.2,15.2l0,0"/>
<path style="fill:#FFB717;" d="M432.8,211.6c0-4.8,4-9.6,8.8-9.6s8.8,4.8,8.8,9.6"/>
<circle style="fill:#00233F;" cx="441.6" cy="211.6" r="8.8"/>
<path style="fill:#D16311;" d="M450.4,211.6c0,4.8-4,9.6-8.8,9.6s-8.8-4.8-8.8-9.6s4-7.2,8.8-7.2S450.4,206.8,450.4,211.6z"/>
<path style="fill:#064570;" d="M450.4,211.6c0,4.8-4,8.8-8.8,8.8s-8.8-4-8.8-8.8s4-7.2,8.8-7.2S450.4,206.8,450.4,211.6z"/>
<g>
	<path style="fill:#00233F;" d="M441.6,202.8c4.8,0,8.8,4,8.8,8.8s-4,8.8-8.8,8.8"/>
	<path style="fill:#00233F;" d="M444.8,208.4c1.6,1.6,1.6,5.6,0,7.2c-1.6,1.6-4,1.6-6.4,0c-1.6-1.6-1.6-5.6,0-7.2
		C440,206.8,443.2,206.8,444.8,208.4z"/>
</g>
<circle style="fill:#B2B2B2;" cx="441.6" cy="211.6" r="4"/>
<path style="fill:#8E8E8E;" d="M438.4,208.4c1.6-1.6,4-1.6,6.4,0c1.6,1.6,1.6,4,0,6.4"/>
<path style="fill:#A09F9F;" d="M444,211.6c0,1.6-0.8,2.4-2.4,2.4s-2.4-1.6-2.4-2.4c0-1.6,0.8-2.4,2.4-2.4S444,210,444,211.6z"/>
<circle style="fill:#8E8E8E;" cx="441.6" cy="211.6" r="2.4"/>
<path style="fill:#707070;" d="M441.6,209.2c1.6,0,2.4,0.8,2.4,2.4c0,1.6-0.8,2.4-2.4,2.4"/>
<path style="fill:#FFB717;" d="M432.8,237.2c0-4.8,4-9.6,8.8-9.6s8.8,4.8,8.8,9.6"/>
<circle style="fill:#00233F;" cx="441.6" cy="237.2" r="8.8"/>
<path style="fill:#D16311;" d="M450.4,237.2c0,4.8-4,9.6-8.8,9.6s-8.8-4.8-8.8-9.6s4-7.2,8.8-7.2S450.4,232.4,450.4,237.2z"/>
<path style="fill:#064570;" d="M450.4,237.2c0,4.8-4,8.8-8.8,8.8s-8.8-4-8.8-8.8s4-7.2,8.8-7.2S450.4,232.4,450.4,237.2z"/>
<g>
	<path style="fill:#00233F;" d="M441.6,228.4c4.8,0,8.8,4,8.8,8.8s-4,8.8-8.8,8.8"/>
	<path style="fill:#00233F;" d="M444.8,234c1.6,1.6,1.6,5.6,0,7.2c-1.6,1.6-4,1.6-6.4,0c-1.6-1.6-1.6-5.6,0-7.2
		C440,232.4,443.2,232.4,444.8,234z"/>
</g>
<circle style="fill:#B2B2B2;" cx="441.6" cy="237.2" r="4"/>
<path style="fill:#8E8E8E;" d="M438.4,234c1.6-1.6,4-1.6,6.4,0c1.6,1.6,1.6,4,0,6.4"/>
<path style="fill:#A09F9F;" d="M444,237.2c0,1.6-0.8,2.4-2.4,2.4s-2.4-1.6-2.4-2.4c0-1.6,0.8-2.4,2.4-2.4S444,235.6,444,237.2z"/>
<circle style="fill:#8E8E8E;" cx="441.6" cy="237.2" r="2.4"/>
<path style="fill:#707070;" d="M441.6,234.8c1.6,0,2.4,0.8,2.4,2.4c0,1.6-0.8,2.4-2.4,2.4"/>
<path style="fill:#FFB717;" d="M432.8,262.8c0-4.8,4-9.6,8.8-9.6s8.8,4.8,8.8,9.6"/>
<circle style="fill:#00233F;" cx="441.6" cy="262.8" r="8.8"/>
<path style="fill:#D16311;" d="M450.4,262.8c0,4.8-4,9.6-8.8,9.6s-8.8-4.8-8.8-9.6c0-4.8,4-7.2,8.8-7.2S450.4,258,450.4,262.8z"/>
<path style="fill:#064570;" d="M450.4,262.8c0,4.8-4,8.8-8.8,8.8s-8.8-4-8.8-8.8c0-4.8,4-7.2,8.8-7.2S450.4,258,450.4,262.8z"/>
<g>
	<path style="fill:#00233F;" d="M441.6,254c4.8,0,8.8,4,8.8,8.8s-4,8.8-8.8,8.8"/>
	<path style="fill:#00233F;" d="M444.8,259.6c1.6,1.6,1.6,5.6,0,7.2s-4,1.6-6.4,0c-1.6-1.6-1.6-5.6,0-7.2S443.2,258,444.8,259.6z"/>
</g>
<circle style="fill:#B2B2B2;" cx="441.6" cy="262.8" r="4"/>
<path style="fill:#8E8E8E;" d="M438.4,259.6c1.6-1.6,4-1.6,6.4,0c1.6,1.6,1.6,4,0,6.4"/>
<path style="fill:#A09F9F;" d="M444,262.8c0,1.6-0.8,2.4-2.4,2.4s-2.4-1.6-2.4-2.4c0-1.6,0.8-2.4,2.4-2.4S444,261.2,444,262.8z"/>
<circle style="fill:#8E8E8E;" cx="441.6" cy="262.8" r="2.4"/>
<path style="fill:#707070;" d="M441.6,260.4c1.6,0,2.4,0.8,2.4,2.4s-0.8,2.4-2.4,2.4"/>
<path style="fill:#FFB717;" d="M416,386c0-14.4,11.2-28.8,25.6-28.8s25.6,15.2,25.6,28.8"/>
<circle style="fill:#00233F;" cx="441.6" cy="386" r="25.6"/>
<path style="fill:#D16311;" d="M467.2,386c0,14.4-11.2,28.8-25.6,28.8S416,400.4,416,386s11.2-21.6,25.6-21.6S467.2,371.6,467.2,386
	z"/>
<path style="fill:#064570;" d="M467.2,386c0,14.4-11.2,25.6-25.6,25.6S416,400.4,416,386s11.2-21.6,25.6-21.6S467.2,371.6,467.2,386
	z"/>
<g>
	<path style="fill:#00233F;" d="M441.6,360.4c14.4,0,25.6,11.2,25.6,25.6s-11.2,25.6-25.6,25.6"/>
	<path style="fill:#00233F;" d="M450.4,376.4c4.8,4.8,4.8,16,0,20.8s-12.8,4.8-18.4,0c-4.8-4.8-4.8-16,0-20.8
		C437.6,371.6,445.6,371.6,450.4,376.4z"/>
</g>
<circle style="fill:#B2B2B2;" cx="441.6" cy="386" r="12.8"/>
<path style="fill:#8E8E8E;" d="M432.8,376.4c4.8-4.8,12.8-4.8,18.4,0c4.8,4.8,4.8,12.8,0,18.4"/>
<path style="fill:#A09F9F;" d="M448.8,386c0,4-3.2,8-7.2,8s-7.2-4.8-7.2-8c0-4,3.2-7.2,7.2-7.2S448.8,382,448.8,386z"/>
<circle style="fill:#8E8E8E;" cx="441.6" cy="386" r="7.2"/>
<path style="fill:#707070;" d="M441.6,378.8c4,0,7.2,3.2,7.2,7.2s-3.2,7.2-7.2,7.2"/>
<path style="fill:#4F4F4F;" d="M253.6,456.4c0,2.4-1.6,4.8-4.8,4.8l0,0c-2.4,0-4.8-2.4-4.8-4.8v-88c0-2.4,1.6-4.8,4.8-4.8l0,0
	c2.4,0,4.8,1.6,4.8,4.8V456.4z"/>
<path style="fill:#ED900A;" d="M392,332.4c0,17.6-3.2,31.2-20.8,31.2H126.4c-17.6,0-20.8-13.6-20.8-31.2V207.6
	c0-17.6,13.6-31.2,31.2-31.2h224c17.6,0,31.2,13.6,31.2,31.2V332.4z"/>
<path style="fill:#EA7711;" d="M392,207.6v124.8c0,17.6-3.2,31.2-20.8,31.2H126.4c-17.6,0-20.8-13.6-20.8-31.2V207.6"/>
<g>
	<path style="fill:#D16311;" d="M392,332.4c0,17.6-3.2,31.2-20.8,31.2H126.4c-17.6,0-20.8-13.6-20.8-31.2"/>
	<circle style="fill:#D16311;" cx="161.6" cy="187.6" r="1.6"/>
	<circle style="fill:#D16311;" cx="175.2" cy="187.6" r="1.6"/>
	<circle style="fill:#D16311;" cx="188.8" cy="187.6" r="1.6"/>
	<circle style="fill:#D16311;" cx="201.6" cy="187.6" r="1.6"/>
	<circle style="fill:#D16311;" cx="215.2" cy="187.6" r="1.6"/>
	<circle style="fill:#D16311;" cx="228.8" cy="187.6" r="1.6"/>
	<circle style="fill:#D16311;" cx="242.4" cy="187.6" r="1.6"/>
	<circle style="fill:#D16311;" cx="255.2" cy="187.6" r="1.6"/>
	<circle style="fill:#D16311;" cx="268.8" cy="187.6" r="1.6"/>
	<circle style="fill:#D16311;" cx="282.4" cy="187.6" r="1.6"/>
	<circle style="fill:#D16311;" cx="296" cy="187.6" r="1.6"/>
	<circle style="fill:#D16311;" cx="308.8" cy="187.6" r="1.6"/>
	<circle style="fill:#D16311;" cx="322.4" cy="187.6" r="1.6"/>
	<circle style="fill:#D16311;" cx="336" cy="187.6" r="1.6"/>
	<circle style="fill:#D16311;" cx="161.6" cy="197.2" r="1.6"/>
	<circle style="fill:#D16311;" cx="175.2" cy="197.2" r="1.6"/>
	<circle style="fill:#D16311;" cx="188.8" cy="197.2" r="1.6"/>
	<circle style="fill:#D16311;" cx="201.6" cy="197.2" r="1.6"/>
	<circle style="fill:#D16311;" cx="215.2" cy="197.2" r="1.6"/>
	<circle style="fill:#D16311;" cx="228.8" cy="197.2" r="1.6"/>
	<circle style="fill:#D16311;" cx="242.4" cy="197.2" r="1.6"/>
	<circle style="fill:#D16311;" cx="255.2" cy="197.2" r="1.6"/>
	<circle style="fill:#D16311;" cx="268.8" cy="197.2" r="1.6"/>
	<circle style="fill:#D16311;" cx="282.4" cy="197.2" r="1.6"/>
	<circle style="fill:#D16311;" cx="296" cy="197.2" r="1.6"/>
	<circle style="fill:#D16311;" cx="308.8" cy="197.2" r="1.6"/>
	<circle style="fill:#D16311;" cx="322.4" cy="197.2" r="1.6"/>
	<circle style="fill:#D16311;" cx="336" cy="197.2" r="1.6"/>
	<circle style="fill:#D16311;" cx="161.6" cy="206.8" r="1.6"/>
	<circle style="fill:#D16311;" cx="175.2" cy="206.8" r="1.6"/>
	<circle style="fill:#D16311;" cx="188.8" cy="206.8" r="1.6"/>
	<circle style="fill:#D16311;" cx="201.6" cy="206.8" r="1.6"/>
	<circle style="fill:#D16311;" cx="215.2" cy="206.8" r="1.6"/>
	<circle style="fill:#D16311;" cx="228.8" cy="206.8" r="1.6"/>
	<circle style="fill:#D16311;" cx="242.4" cy="206.8" r="1.6"/>
	<circle style="fill:#D16311;" cx="255.2" cy="206.8" r="1.6"/>
	<circle style="fill:#D16311;" cx="268.8" cy="206.8" r="1.6"/>
	<circle style="fill:#D16311;" cx="282.4" cy="206.8" r="1.6"/>
	<circle style="fill:#D16311;" cx="296" cy="206.8" r="1.6"/>
	<circle style="fill:#D16311;" cx="308.8" cy="206.8" r="1.6"/>
	<circle style="fill:#D16311;" cx="322.4" cy="206.8" r="1.6"/>
	<circle style="fill:#D16311;" cx="336" cy="206.8" r="1.6"/>
	<circle style="fill:#D16311;" cx="161.6" cy="217.2" r="1.6"/>
	<circle style="fill:#D16311;" cx="175.2" cy="217.2" r="1.6"/>
	<circle style="fill:#D16311;" cx="188.8" cy="217.2" r="1.6"/>
	<circle style="fill:#D16311;" cx="201.6" cy="217.2" r="1.6"/>
	<circle style="fill:#D16311;" cx="215.2" cy="217.2" r="1.6"/>
	<circle style="fill:#D16311;" cx="228.8" cy="217.2" r="1.6"/>
	<circle style="fill:#D16311;" cx="242.4" cy="217.2" r="1.6"/>
	<circle style="fill:#D16311;" cx="255.2" cy="217.2" r="1.6"/>
	<circle style="fill:#D16311;" cx="268.8" cy="217.2" r="1.6"/>
	<circle style="fill:#D16311;" cx="282.4" cy="217.2" r="1.6"/>
	<circle style="fill:#D16311;" cx="296" cy="217.2" r="1.6"/>
	<circle style="fill:#D16311;" cx="308.8" cy="217.2" r="1.6"/>
	<circle style="fill:#D16311;" cx="322.4" cy="217.2" r="1.6"/>
	<circle style="fill:#D16311;" cx="336" cy="217.2" r="1.6"/>
	<circle style="fill:#D16311;" cx="161.6" cy="226.8" r="1.6"/>
	<circle style="fill:#D16311;" cx="175.2" cy="226.8" r="1.6"/>
	<circle style="fill:#D16311;" cx="188.8" cy="226.8" r="1.6"/>
	<circle style="fill:#D16311;" cx="201.6" cy="226.8" r="1.6"/>
	<circle style="fill:#D16311;" cx="215.2" cy="226.8" r="1.6"/>
	<circle style="fill:#D16311;" cx="228.8" cy="226.8" r="1.6"/>
	<circle style="fill:#D16311;" cx="242.4" cy="226.8" r="1.6"/>
	<circle style="fill:#D16311;" cx="255.2" cy="226.8" r="1.6"/>
	<circle style="fill:#D16311;" cx="268.8" cy="226.8" r="1.6"/>
	<circle style="fill:#D16311;" cx="282.4" cy="226.8" r="1.6"/>
	<circle style="fill:#D16311;" cx="296" cy="226.8" r="1.6"/>
	<circle style="fill:#D16311;" cx="308.8" cy="226.8" r="1.6"/>
	<circle style="fill:#D16311;" cx="322.4" cy="226.8" r="1.6"/>
	<circle style="fill:#D16311;" cx="336" cy="226.8" r="1.6"/>
	<circle style="fill:#D16311;" cx="161.6" cy="236.4" r="1.6"/>
	<circle style="fill:#D16311;" cx="175.2" cy="236.4" r="1.6"/>
	<circle style="fill:#D16311;" cx="188.8" cy="236.4" r="1.6"/>
	<circle style="fill:#D16311;" cx="201.6" cy="236.4" r="1.6"/>
	<circle style="fill:#D16311;" cx="215.2" cy="236.4" r="1.6"/>
	<circle style="fill:#D16311;" cx="228.8" cy="236.4" r="1.6"/>
	<circle style="fill:#D16311;" cx="242.4" cy="236.4" r="1.6"/>
	<circle style="fill:#D16311;" cx="255.2" cy="236.4" r="1.6"/>
	<circle style="fill:#D16311;" cx="268.8" cy="236.4" r="1.6"/>
	<circle style="fill:#D16311;" cx="282.4" cy="236.4" r="1.6"/>
	<circle style="fill:#D16311;" cx="296" cy="236.4" r="1.6"/>
	<circle style="fill:#D16311;" cx="308.8" cy="236.4" r="1.6"/>
	<circle style="fill:#D16311;" cx="322.4" cy="236.4" r="1.6"/>
	<circle style="fill:#D16311;" cx="336" cy="236.4" r="1.6"/>
	<circle style="fill:#D16311;" cx="161.6" cy="246" r="1.6"/>
	<circle style="fill:#D16311;" cx="175.2" cy="246" r="1.6"/>
	<circle style="fill:#D16311;" cx="188.8" cy="246" r="1.6"/>
	<circle style="fill:#D16311;" cx="201.6" cy="246" r="1.6"/>
	<circle style="fill:#D16311;" cx="215.2" cy="246" r="1.6"/>
	<circle style="fill:#D16311;" cx="228.8" cy="246" r="1.6"/>
	<circle style="fill:#D16311;" cx="242.4" cy="246" r="1.6"/>
	<circle style="fill:#D16311;" cx="255.2" cy="246" r="1.6"/>
	<circle style="fill:#D16311;" cx="268.8" cy="246" r="1.6"/>
	<circle style="fill:#D16311;" cx="282.4" cy="246" r="1.6"/>
	<circle style="fill:#D16311;" cx="296" cy="246" r="1.6"/>
	<circle style="fill:#D16311;" cx="308.8" cy="246" r="1.6"/>
	<circle style="fill:#D16311;" cx="322.4" cy="246" r="1.6"/>
	<circle style="fill:#D16311;" cx="336" cy="246" r="1.6"/>
	<circle style="fill:#D16311;" cx="161.6" cy="255.6" r="1.6"/>
	<circle style="fill:#D16311;" cx="175.2" cy="255.6" r="1.6"/>
	<circle style="fill:#D16311;" cx="188.8" cy="255.6" r="1.6"/>
	<circle style="fill:#D16311;" cx="201.6" cy="255.6" r="1.6"/>
	<circle style="fill:#D16311;" cx="215.2" cy="255.6" r="1.6"/>
	<circle style="fill:#D16311;" cx="228.8" cy="255.6" r="1.6"/>
	<circle style="fill:#D16311;" cx="242.4" cy="255.6" r="1.6"/>
	<circle style="fill:#D16311;" cx="255.2" cy="255.6" r="1.6"/>
	<circle style="fill:#D16311;" cx="268.8" cy="255.6" r="1.6"/>
	<circle style="fill:#D16311;" cx="282.4" cy="255.6" r="1.6"/>
	<circle style="fill:#D16311;" cx="296" cy="255.6" r="1.6"/>
	<circle style="fill:#D16311;" cx="308.8" cy="255.6" r="1.6"/>
	<circle style="fill:#D16311;" cx="322.4" cy="255.6" r="1.6"/>
	<circle style="fill:#D16311;" cx="336" cy="255.6" r="1.6"/>
	<circle style="fill:#D16311;" cx="161.6" cy="266" r="1.6"/>
	<circle style="fill:#D16311;" cx="175.2" cy="266" r="1.6"/>
	<circle style="fill:#D16311;" cx="188.8" cy="266" r="1.6"/>
	<circle style="fill:#D16311;" cx="201.6" cy="266" r="1.6"/>
	<circle style="fill:#D16311;" cx="215.2" cy="266" r="1.6"/>
	<circle style="fill:#D16311;" cx="228.8" cy="266" r="1.6"/>
	<circle style="fill:#D16311;" cx="242.4" cy="266" r="1.6"/>
	<circle style="fill:#D16311;" cx="255.2" cy="266" r="1.6"/>
	<circle style="fill:#D16311;" cx="268.8" cy="266" r="1.6"/>
	<circle style="fill:#D16311;" cx="282.4" cy="266" r="1.6"/>
	<circle style="fill:#D16311;" cx="296" cy="266" r="1.6"/>
	<circle style="fill:#D16311;" cx="308.8" cy="266" r="1.6"/>
	<circle style="fill:#D16311;" cx="322.4" cy="266" r="1.6"/>
	<circle style="fill:#D16311;" cx="336" cy="266" r="1.6"/>
	<circle style="fill:#D16311;" cx="161.6" cy="275.6" r="1.6"/>
	<circle style="fill:#D16311;" cx="175.2" cy="275.6" r="1.6"/>
	<circle style="fill:#D16311;" cx="188.8" cy="275.6" r="1.6"/>
	<circle style="fill:#D16311;" cx="201.6" cy="275.6" r="1.6"/>
	<circle style="fill:#D16311;" cx="215.2" cy="275.6" r="1.6"/>
	<circle style="fill:#D16311;" cx="228.8" cy="275.6" r="1.6"/>
	<circle style="fill:#D16311;" cx="242.4" cy="275.6" r="1.6"/>
	<circle style="fill:#D16311;" cx="255.2" cy="275.6" r="1.6"/>
	<circle style="fill:#D16311;" cx="268.8" cy="275.6" r="1.6"/>
	<circle style="fill:#D16311;" cx="282.4" cy="275.6" r="1.6"/>
	<circle style="fill:#D16311;" cx="296" cy="275.6" r="1.6"/>
	<circle style="fill:#D16311;" cx="308.8" cy="275.6" r="1.6"/>
	<circle style="fill:#D16311;" cx="322.4" cy="275.6" r="1.6"/>
	<circle style="fill:#D16311;" cx="336" cy="275.6" r="1.6"/>
	<circle style="fill:#D16311;" cx="161.6" cy="285.2" r="1.6"/>
	<circle style="fill:#D16311;" cx="175.2" cy="285.2" r="1.6"/>
	<circle style="fill:#D16311;" cx="188.8" cy="285.2" r="1.6"/>
	<circle style="fill:#D16311;" cx="201.6" cy="285.2" r="1.6"/>
	<circle style="fill:#D16311;" cx="215.2" cy="285.2" r="1.6"/>
	<circle style="fill:#D16311;" cx="228.8" cy="285.2" r="1.6"/>
	<circle style="fill:#D16311;" cx="242.4" cy="285.2" r="1.6"/>
	<circle style="fill:#D16311;" cx="255.2" cy="285.2" r="1.6"/>
	<circle style="fill:#D16311;" cx="268.8" cy="285.2" r="1.6"/>
	<circle style="fill:#D16311;" cx="282.4" cy="285.2" r="1.6"/>
	<circle style="fill:#D16311;" cx="296" cy="285.2" r="1.6"/>
	<circle style="fill:#D16311;" cx="308.8" cy="285.2" r="1.6"/>
	<circle style="fill:#D16311;" cx="322.4" cy="285.2" r="1.6"/>
	<circle style="fill:#D16311;" cx="336" cy="285.2" r="1.6"/>
	<circle style="fill:#D16311;" cx="161.6" cy="294.8" r="1.6"/>
	<circle style="fill:#D16311;" cx="175.2" cy="294.8" r="1.6"/>
	<circle style="fill:#D16311;" cx="188.8" cy="294.8" r="1.6"/>
	<circle style="fill:#D16311;" cx="201.6" cy="294.8" r="1.6"/>
	<circle style="fill:#D16311;" cx="215.2" cy="294.8" r="1.6"/>
	<circle style="fill:#D16311;" cx="228.8" cy="294.8" r="1.6"/>
	<circle style="fill:#D16311;" cx="242.4" cy="294.8" r="1.6"/>
	<circle style="fill:#D16311;" cx="255.2" cy="294.8" r="1.6"/>
	<circle style="fill:#D16311;" cx="268.8" cy="294.8" r="1.6"/>
	<circle style="fill:#D16311;" cx="282.4" cy="294.8" r="1.6"/>
	<circle style="fill:#D16311;" cx="296" cy="294.8" r="1.6"/>
	<circle style="fill:#D16311;" cx="308.8" cy="294.8" r="1.6"/>
	<circle style="fill:#D16311;" cx="322.4" cy="294.8" r="1.6"/>
	<circle style="fill:#D16311;" cx="336" cy="294.8" r="1.6"/>
	<circle style="fill:#D16311;" cx="161.6" cy="305.2" r="1.6"/>
	<circle style="fill:#D16311;" cx="175.2" cy="305.2" r="1.6"/>
	<circle style="fill:#D16311;" cx="188.8" cy="305.2" r="1.6"/>
	<circle style="fill:#D16311;" cx="201.6" cy="305.2" r="1.6"/>
	<circle style="fill:#D16311;" cx="215.2" cy="305.2" r="1.6"/>
	<circle style="fill:#D16311;" cx="228.8" cy="305.2" r="1.6"/>
	<circle style="fill:#D16311;" cx="242.4" cy="305.2" r="1.6"/>
	<circle style="fill:#D16311;" cx="255.2" cy="305.2" r="1.6"/>
	<circle style="fill:#D16311;" cx="268.8" cy="305.2" r="1.6"/>
	<circle style="fill:#D16311;" cx="282.4" cy="305.2" r="1.6"/>
	<circle style="fill:#D16311;" cx="296" cy="305.2" r="1.6"/>
	<circle style="fill:#D16311;" cx="308.8" cy="305.2" r="1.6"/>
	<circle style="fill:#D16311;" cx="322.4" cy="305.2" r="1.6"/>
	<circle style="fill:#D16311;" cx="336" cy="305.2" r="1.6"/>
	<circle style="fill:#D16311;" cx="161.6" cy="314.8" r="1.6"/>
	<circle style="fill:#D16311;" cx="175.2" cy="314.8" r="1.6"/>
	<circle style="fill:#D16311;" cx="188.8" cy="314.8" r="1.6"/>
	<circle style="fill:#D16311;" cx="201.6" cy="314.8" r="1.6"/>
	<circle style="fill:#D16311;" cx="215.2" cy="314.8" r="1.6"/>
	<circle style="fill:#D16311;" cx="228.8" cy="314.8" r="1.6"/>
	<circle style="fill:#D16311;" cx="242.4" cy="314.8" r="1.6"/>
	<circle style="fill:#D16311;" cx="255.2" cy="314.8" r="1.6"/>
	<circle style="fill:#D16311;" cx="268.8" cy="314.8" r="1.6"/>
	<circle style="fill:#D16311;" cx="282.4" cy="314.8" r="1.6"/>
	<circle style="fill:#D16311;" cx="296" cy="314.8" r="1.6"/>
	<circle style="fill:#D16311;" cx="308.8" cy="314.8" r="1.6"/>
	<circle style="fill:#D16311;" cx="322.4" cy="314.8" r="1.6"/>
	<circle style="fill:#D16311;" cx="336" cy="314.8" r="1.6"/>
	<circle style="fill:#D16311;" cx="161.6" cy="324.4" r="1.6"/>
	<circle style="fill:#D16311;" cx="175.2" cy="324.4" r="1.6"/>
	<circle style="fill:#D16311;" cx="188.8" cy="324.4" r="1.6"/>
	<circle style="fill:#D16311;" cx="201.6" cy="324.4" r="1.6"/>
	<circle style="fill:#D16311;" cx="215.2" cy="324.4" r="1.6"/>
	<circle style="fill:#D16311;" cx="228.8" cy="324.4" r="1.6"/>
	<circle style="fill:#D16311;" cx="242.4" cy="324.4" r="1.6"/>
	<circle style="fill:#D16311;" cx="255.2" cy="324.4" r="1.6"/>
	<circle style="fill:#D16311;" cx="268.8" cy="324.4" r="1.6"/>
	<circle style="fill:#D16311;" cx="282.4" cy="324.4" r="1.6"/>
	<circle style="fill:#D16311;" cx="296" cy="324.4" r="1.6"/>
	<circle style="fill:#D16311;" cx="308.8" cy="324.4" r="1.6"/>
	<circle style="fill:#D16311;" cx="322.4" cy="324.4" r="1.6"/>
	<circle style="fill:#D16311;" cx="336" cy="324.4" r="1.6"/>
</g>
<path style="fill:#FFB717;" d="M132,270.8c0-28.8,24-60,52.8-60s52.8,31.2,52.8,60"/>
<path style="fill:#00233F;" d="M237.6,270.8c0,28.8-23.2,52.8-52.8,52.8S132,300.4,132,270.8c0-28.8,24-52.8,52.8-52.8
	S237.6,241.2,237.6,270.8z"/>
<path style="fill:#D16311;" d="M237.6,270.8c0,28.8-23.2,59.2-52.8,59.2S132,299.6,132,270.8s24-44.8,52.8-44.8
	S237.6,241.2,237.6,270.8z"/>
<path style="fill:#064570;" d="M237.6,270.8c0,28.8-23.2,52.8-52.8,52.8S132,300.4,132,270.8c0-28.8,24-44.8,52.8-44.8
	S237.6,241.2,237.6,270.8z"/>
<g>
	<path style="fill:#00233F;" d="M184.8,218c28.8,0,52.8,23.2,52.8,52.8c0,28.8-23.2,52.8-52.8,52.8"/>
	<path style="fill:#00233F;" d="M203.2,251.6c10.4,10.4,10.4,32.8,0,43.2c-10.4,10.4-27.2,10.4-37.6,0c-10.4-10.4-10.4-32.8,0-43.2
		C176,242,192.8,242,203.2,251.6z"/>
</g>
<path style="fill:#B2B2B2;" d="M203.2,251.6c10.4,10.4,10.4,27.2,0,37.6s-27.2,10.4-37.6,0c-10.4-10.4-10.4-27.2,0-37.6
	C176,242,192.8,242,203.2,251.6z"/>
<path style="fill:#8E8E8E;" d="M165.6,251.6c10.4-10.4,27.2-10.4,37.6,0s10.4,27.2,0,37.6"/>
<path style="fill:#A09F9F;" d="M199.2,270.8c0,8-6.4,16.8-14.4,16.8s-14.4-8.8-14.4-16.8s6.4-14.4,14.4-14.4
	S199.2,262.8,199.2,270.8z"/>
<path style="fill:#8E8E8E;" d="M199.2,270.8c0,8-6.4,14.4-14.4,14.4s-14.4-6.4-14.4-14.4s6.4-14.4,14.4-14.4
	S199.2,262.8,199.2,270.8z"/>
<path style="fill:#707070;" d="M184.8,256.4c8,0,14.4,6.4,14.4,14.4s-6.4,14.4-14.4,14.4"/>
<path style="fill:#FFB717;" d="M260,270.8c0-28.8,24-60,52.8-60s52.8,31.2,52.8,60"/>
<path style="fill:#00233F;" d="M365.6,270.8c0,28.8-23.2,52.8-52.8,52.8c-28.8,0-52.8-23.2-52.8-52.8c0-28.8,24-52.8,52.8-52.8
	C342.4,218,365.6,241.2,365.6,270.8z"/>
<path style="fill:#D16311;" d="M365.6,270.8c0,28.8-23.2,59.2-52.8,59.2c-28.8,0-52.8-30.4-52.8-59.2s24-44.8,52.8-44.8
	C342.4,225.2,365.6,241.2,365.6,270.8z"/>
<path style="fill:#064570;" d="M365.6,270.8c0,28.8-23.2,52.8-52.8,52.8c-28.8,0-52.8-23.2-52.8-52.8c0-28.8,24-44.8,52.8-44.8
	C342.4,225.2,365.6,241.2,365.6,270.8z"/>
<g>
	<path style="fill:#00233F;" d="M312.8,218c28.8,0,52.8,23.2,52.8,52.8c0,28.8-23.2,52.8-52.8,52.8"/>
	<path style="fill:#00233F;" d="M332,251.6c10.4,10.4,10.4,32.8,0,43.2c-10.4,10.4-27.2,10.4-37.6,0s-10.4-32.8,0-43.2
		C304.8,242,321.6,242,332,251.6z"/>
</g>
<path style="fill:#B2B2B2;" d="M332,251.6c10.4,10.4,10.4,27.2,0,37.6s-27.2,10.4-37.6,0s-10.4-27.2,0-37.6
	C304.8,242,321.6,242,332,251.6z"/>
<path style="fill:#8E8E8E;" d="M294.4,251.6c10.4-10.4,27.2-10.4,37.6,0s10.4,27.2,0,37.6"/>
<path style="fill:#A09F9F;" d="M327.2,270.8c0,8-6.4,16.8-14.4,16.8s-14.4-8.8-14.4-16.8s6.4-14.4,14.4-14.4
	S327.2,262.8,327.2,270.8z"/>
<path style="fill:#8E8E8E;" d="M327.2,270.8c0,8-6.4,14.4-14.4,14.4s-14.4-6.4-14.4-14.4s6.4-14.4,14.4-14.4
	S327.2,262.8,327.2,270.8z"/>
<path style="fill:#707070;" d="M312.8,256.4c8,0,14.4,6.4,14.4,14.4s-6.4,14.4-14.4,14.4"/>
<path style="fill:#8E8E8E;" d="M358.4,480.4c-11.2-15.2-56-27.2-109.6-27.2s-98.4,11.2-109.6,27.2H358.4z"/>
<path style="fill:#707070;" d="M139.2,480.4h220c-11.2-15.2-56-27.2-109.6-27.2"/>
<path style="fill:#8E8E8E;" d="M392.8,361.2c0,3.2-2.4,6.4-6.4,6.4H111.2c-3.2,0-6.4-2.4-6.4-6.4l0,0c0-3.2,2.4-6.4,6.4-6.4h275.2
	C389.6,354.8,392.8,357.2,392.8,361.2L392.8,361.2z"/>
<path style="fill:#707070;" d="M392.8,361.2L392.8,361.2c0,3.2-2.4,6.4-6.4,6.4H111.2c-3.2,0-6.4-2.4-6.4-6.4l0,0"/>
<g>
	<path style="fill:#8E8E8E;" d="M254.4,393.2C254.4,394,254.4,394,254.4,393.2L244,394c0,0-0.8,0-0.8-0.8l0,0c0,0,0-0.8,0.8-0.8
		L254.4,393.2L254.4,393.2L254.4,393.2z"/>
	<path style="fill:#8E8E8E;" d="M254.4,398.8C254.4,398.8,254.4,399.6,254.4,398.8l-10.4,0.8c0,0-0.8,0-0.8-0.8l0,0
		c0,0,0-0.8,0.8-0.8L254.4,398.8C254.4,398,254.4,398,254.4,398.8L254.4,398.8z"/>
	<path style="fill:#8E8E8E;" d="M254.4,403.6C254.4,404.4,254.4,404.4,254.4,403.6l-10.4,0.8c0,0-0.8,0-0.8-0.8l0,0
		c0,0,0-0.8,0.8-0.8L254.4,403.6C254.4,402.8,254.4,403.6,254.4,403.6L254.4,403.6z"/>
</g>
<g>
</g>
<g>
</g>
<g>
</g>
<g>
</g>
<g>
</g>
<g>
</g>
<g>
</g>
<g>
</g>
<g>
</g>
<g>
</g>
<g>
</g>
<g>
</g>
<g>
</g>
<g>
</g>
<g>
</g>
</svg>
