<?xml version="1.0" encoding="utf-8"?>
<!-- Svg Vector Icons : http://www.onlinewebfonts.com/icon -->
<!DOCTYPE svg PUBLIC "-//W3C//DTD SVG 1.1//EN" "http://www.w3.org/Graphics/SVG/1.1/DTD/svg11.dtd">
<svg version="1.1" xmlns="http://www.w3.org/2000/svg" xmlns:xlink="http://www.w3.org/1999/xlink" x="0px" y="0px" viewBox="0 0 1000 1000" enable-background="new 0 0 1000 1000" xml:space="preserve">
<metadata> Svg Vector Icons : http://www.onlinewebfonts.com/icon </metadata>
<g><path d="M990,317.1l-490-245l-490,245l490,245L990,317.1L990,317.1z M500,119.5l395.2,197.6L500,514.8L104.8,317.1L500,119.5L500,119.5z M871.2,487.9l24.1,12L500,697.6L104.8,499.9l24.1-12l-47.4-23.7L10,499.9l490,245l490-245l-71.4-35.7L871.2,487.9z M871.2,670.8l24.1,12L500,880.5L104.8,682.9l24.1-12l-47.4-23.7L10,682.9l490,245l490-245l-71.4-35.7L871.2,670.8z"/></g>
</svg>